 <svg  version="1.0" xmlns="http://www.w3.org/2000/svg"  width="300.000000pt" height="300.000000pt" viewBox="0 0 300.000000 300.000000"  preserveAspectRatio="xMidYMid meet">  <g transform="translate(0.000000,300.000000) scale(0.100000,-0.100000)" fill="#ffffff" stroke="none"> <path d="M1438 2836 c-127 -105 -218 -286 -221 -441 -3 -102 17 -158 74 -215 59 -59 153 -108 178 -93 23 15 26 101 5 192 -20 93 -21 219 0 285 8 27 13 53 10 57 -2 4 -20 5 -39 2 -52 -8 -85 3 -85 30 0 55 89 151 158 172 36 10 107 -69 166 -185 27 -52 58 -107 68 -123 17 -24 18 -28 4 -33 -22 -8 -20 -21 4 -27 17 -4 20 -14 20 -70 0 -67 -13 -95 -25 -56 -6 18 -10 13 -24 -29 -10 -28 -30 -70 -46 -93 l-28 -43 -45 120 c-38 101 -46 133 -50 212 -3 68 -8 92 -18 92 -44 0 -43 -141 2 -280 15 -47 30 -116 33 -155 7 -80 9 -81 96 -38 185 91 221 287 99 523 -61 117 -173 233 -240 246 -25 4 -39 -3 -96 -50z m-39 -280 c7 -8 11 -32 9 -53 -3 -36 -5 -38 -38 -41 -19 -2 -43 3 -54 11 -24 17 -24 66 0 84 24 17 69 17 83 -1z m-90 -140 c7 -8 25 -18 41 -21 16 -3 33 -12 38 -18 16 -19 44 -189 34 -199 -15 -15 -77 17 -105 54 -52 67 -73 158 -45 186 16 16 23 15 37 -2z"/> <path d="M1012 2540 c3 -58 8 -74 30 -97 14 -15 38 -47 53 -71 16 -23 33 -41 39 -39 31 10 31 147 1 194 -16 24 -100 83 -118 83 -5 0 -7 -31 -5 -70z"/> <path d="M1957 2551 l-42 -40 -4 -86 c-3 -80 -2 -87 15 -83 27 5 111 120 124 169 24 87 -22 106 -93 40z"/> <path d="M2079 2446 c-79 -107 -102 -147 -92 -157 15 -15 74 12 101 46 15 18 22 42 22 69 0 55 -11 70 -31 42z"/> <path d="M947 2453 c-15 -15 -5 -71 18 -106 30 -44 82 -74 98 -58 13 13 -20 80 -66 137 -29 34 -38 40 -50 27z"/> <path d="M682 2308 c-15 -15 -16 -106 -2 -179 21 -114 105 -235 192 -280 40 -20 148 -37 148 -23 0 5 -39 58 -85 118 -47 59 -85 113 -85 120 0 6 -5 3 -11 -7 -6 -10 -8 -29 -5 -41 3 -13 -1 -31 -8 -41 -13 -18 -15 -17 -35 15 -25 41 -56 137 -66 201 -9 59 8 74 70 66 59 -9 162 -56 207 -96 40 -35 88 -121 88 -158 0 -33 -29 -29 -76 10 -77 65 -114 83 -114 54 0 -15 156 -170 187 -186 30 -15 48 5 62 68 17 81 -6 141 -87 221 -37 36 -90 77 -118 92 -92 49 -234 74 -262 46z"/> <path d="M2243 2305 c-191 -42 -333 -173 -333 -309 0 -56 28 -146 45 -146 6 0 49 39 96 88 147 151 151 162 24 82 -44 -27 -89 -50 -102 -50 -21 0 -23 5 -23 44 0 104 159 230 315 249 75 10 81 3 66 -85 -18 -112 -78 -228 -118 -228 -11 0 -13 10 -7 45 7 50 -7 61 -27 23 -7 -13 -41 -63 -77 -113 -72 -101 -70 -107 25 -80 122 35 188 100 232 228 15 44 41 210 41 263 0 9 -98 2 -157 -11z"/> <path d="M1222 2083 c-4 -10 -6 -48 -6 -85 2 -82 23 -124 80 -155 63 -36 68 -29 29 44 -19 36 -35 70 -35 75 0 21 21 3 59 -52 50 -71 71 -77 71 -21 0 65 -47 140 -110 179 -62 37 -78 39 -88 15z"/> <path d="M1768 2079 c-59 -31 -115 -90 -127 -134 -13 -48 -14 -95 -2 -95 16 0 73 72 93 117 19 44 38 57 38 26 0 -9 -18 -50 -41 -90 -22 -41 -39 -79 -37 -84 2 -5 22 0 45 12 84 41 137 167 100 238 -16 32 -25 34 -69 10z"/> <path d="M1487 2003 c-2 -5 0 -66 4 -137 9 -141 21 -172 53 -141 13 13 16 38 16 131 0 64 -5 124 -10 135 -10 18 -54 27 -63 12z"/> <path d="M2367 1897 c-3 -7 1 -28 8 -47 45 -124 55 -159 65 -244 19 -159 -7 -321 -72 -451 -74 -147 -180 -259 -365 -386 -144 -99 -268 -223 -315 -314 -39 -76 -61 -142 -49 -149 11 -7 188 40 261 70 292 118 540 392 620 684 67 248 42 527 -66 742 -48 95 -75 125 -87 95z m94 -684 c-42 -194 -126 -340 -290 -503 -112 -112 -258 -219 -351 -257 -30 -12 -61 -23 -67 -23 -56 -1 81 141 295 303 273 209 374 352 413 582 13 75 14 77 17 34 2 -25 -6 -86 -17 -136z"/> <path d="M570 1885 c-17 -21 -5 -58 32 -100 37 -43 61 -57 82 -49 22 9 20 21 -10 57 -32 38 -19 46 27 18 19 -12 50 -21 69 -21 l34 0 -39 41 c-22 23 -54 48 -72 55 -43 18 -107 18 -123 -1z"/> <path d="M1080 1785 c-11 -13 -9 -20 11 -41 40 -43 106 -84 202 -126 84 -36 96 -39 156 -34 l66 6 -40 -20 c-32 -16 -52 -19 -100 -14 -121 12 -334 -89 -503 -237 -141 -123 -200 -206 -232 -321 -7 -27 -16 -48 -19 -48 -9 0 -58 183 -77 285 -21 115 -38 122 -31 14 10 -148 61 -308 150 -468 l35 -63 7 88 c12 160 40 240 117 341 108 141 241 212 666 353 333 110 488 169 534 201 l30 22 -63 33 c-74 40 -89 41 -115 13 -54 -60 -236 -119 -367 -119 -132 0 -238 36 -329 111 -50 42 -78 48 -98 24z"/> <path d="M2213 1699 c-179 -165 -353 -251 -733 -365 -102 -30 -228 -75 -280 -101 -82 -39 -108 -58 -186 -137 -100 -100 -142 -173 -164 -281 -15 -73 -6 -174 20 -225 62 -121 306 -251 535 -284 58 -9 67 1 75 90 4 44 14 95 20 114 23 61 79 137 160 213 76 72 125 108 305 222 173 110 245 189 327 361 l43 89 3 155 c4 182 -1 220 -28 220 -11 0 -55 -32 -97 -71z m75 -21 c16 -16 15 -45 -4 -102 -15 -43 -15 -48 0 -65 21 -23 20 -39 -5 -106 -41 -110 -181 -251 -369 -373 -368 -240 -390 -257 -465 -372 -56 -85 -74 -129 -86 -214 -5 -39 -13 -74 -18 -79 -11 -11 -207 82 -249 117 -26 22 -35 26 -47 16 -18 -15 -44 -1 -79 45 -51 66 -70 123 -71 210 0 73 3 87 38 158 44 89 134 192 200 227 l44 23 39 -19 c26 -13 39 -26 39 -39 0 -34 -33 -30 -55 7 l-20 33 0 -30 c0 -70 37 -71 122 -2 69 57 88 66 120 60 33 -6 78 34 78 71 0 40 29 58 187 114 81 30 191 74 243 98 111 53 279 162 312 204 26 33 30 34 46 18z m-814 -423 c8 -21 -11 -65 -28 -65 -18 0 -46 27 -46 44 0 33 62 51 74 21z m-148 -30 c15 -23 15 -27 0 -50 -22 -34 -48 -32 -70 6 -17 29 -17 31 0 50 24 26 50 24 70 -6z"/> <path d="M728 1691 c-77 -33 -138 -69 -138 -81 0 -20 80 -72 139 -90 108 -34 178 -21 265 49 l39 31 -92 0 c-74 0 -91 -3 -91 -15 0 -10 -10 -15 -32 -15 -43 1 -108 16 -120 28 -14 14 32 42 93 58 54 14 79 10 79 -13 0 -11 15 -13 72 -11 44 2 73 8 75 15 3 6 -20 26 -49 42 -72 42 -146 42 -240 2z"/> <path d="M520 1529 c0 -24 5 -51 10 -59 6 -9 10 -11 10 -3 0 7 11 18 25 26 l25 13 -35 34 -35 34 0 -45z"/> <path d="M648 1447 c-40 -9 -112 -79 -105 -100 2 -7 18 -13 36 -15 28 -3 40 4 82 46 67 67 63 88 -13 69z"/> <path d="M749 1367 c-51 -34 -96 -137 -59 -137 24 0 150 127 150 151 0 17 -58 9 -91 -14z"/> <path d="M1503 243 c4 -6 82 -13 184 -17 210 -8 450 -24 477 -32 13 -5 15 -9 7 -17 -15 -15 -1239 -17 -1286 -3 l-30 9 35 8 c19 4 127 15 240 24 113 9 212 17 220 19 8 2 -61 4 -155 5 -156 1 -464 -19 -542 -35 -40 -8 -42 -22 -5 -30 15 -3 34 -8 42 -10 8 -2 118 -11 244 -19 563 -37 1559 -4 1505 49 -26 26 -952 75 -936 49z"/> </g> </svg> 